<?xml version="1.0" encoding="utf-8"?>
<!-- Generator: Adobe Illustrator 24.0.2, SVG Export Plug-In . SVG Version: 6.00 Build 0)  -->
<svg version="1.1" id="Layer_1" focusable="false" xmlns="http://www.w3.org/2000/svg" xmlns:xlink="http://www.w3.org/1999/xlink"
	 x="0px" y="0px" viewBox="0 0 64 64" style="enable-background:new 0 0 64 64;" xml:space="preserve">
<path d="M52.8,13.5L43,3.7C42,2.6,40.5,2,39,2H15.1C12,2,9.5,4.5,9.5,7.6v48.7c0,3.1,2.5,5.6,5.6,5.6h33.7c3.1,0,5.6-2.5,5.6-5.6
	V17.5C54.5,16,53.9,14.5,52.8,13.5z M50.2,16.1c0.2,0.2,0.4,0.5,0.5,0.9H39.5V5.8c0.3,0.1,0.6,0.2,0.9,0.5L50.2,16.1z M48.9,58.2
	H15.1c-1,0-1.9-0.8-1.9-1.9V7.6c0-1,0.8-1.9,1.9-1.9h20.6v12.2c0,1.6,1.3,2.8,2.8,2.8h12.2v35.6C50.7,57.4,49.9,58.2,48.9,58.2z
	 M45.2,28.7v3c0,0.2-0.2,0.4-0.4,0.4H19.2c-0.2,0-0.4-0.2-0.4-0.4v-3c0-0.2,0.2-0.4,0.4-0.4h25.7C45.1,28.3,45.2,28.4,45.2,28.7z
	 M45.2,36.2v3c0,0.2-0.2,0.4-0.4,0.4H19.2c-0.2,0-0.4-0.2-0.4-0.4v-3c0-0.2,0.2-0.4,0.4-0.4h25.7C45.1,35.8,45.2,35.9,45.2,36.2z
	 M45.2,44.7v1.9c0,0.2-0.2,0.4-0.4,0.4H19.2c-0.2,0-0.4-0.2-0.4-0.4v-3c0-0.2,0.2-0.4,0.4-0.4h24.7C44.6,43.3,45.2,43.9,45.2,44.7z"
	/>
</svg>
