<?xml version="1.0" encoding="utf-8"?>
<!-- Generator: Adobe Illustrator 24.0.2, SVG Export Plug-In . SVG Version: 6.00 Build 0)  -->
<svg version="1.1" id="Layer_1" focusable="false" xmlns="http://www.w3.org/2000/svg" xmlns:xlink="http://www.w3.org/1999/xlink"
	 x="0px" y="0px" viewBox="0 0 64 64" style="enable-background:new 0 0 64 64;" xml:space="preserve">
<path d="M62,21.3c0-1.4-0.3-2.8-1-4.1L54.4,4.9C53.8,3.2,52.2,2,50.3,2H13.7c-1.8,0-3.5,1.2-4.1,2.9L3,17.2c-0.7,1.2-1,2.6-1,4.1
	c0,8.1,0,36.4,0,36.4C2,60.1,3.9,62,6.3,62h51.4c2.4,0,4.3-1.9,4.3-4.3C62,57.7,62,29.4,62,21.3z M50.3,6.3l6.8,12.9H40.3L38.7,6.3
	H50.3L50.3,6.3z M27.7,23.4h8.6V32h-8.6C27.7,32,27.7,23.4,27.7,23.4z M34.4,6.3L36,19.1h-8l1.6-12.9H34.4z M13.7,6.3h11.6
	l-1.6,12.9H6.9L13.7,6.3z M6.3,57.7c0,0,0-24.3,0-34.3h17.1V32c0,2.4,1.9,4.3,4.3,4.3h8.6c2.4,0,4.3-1.9,4.3-4.3v-8.6h17.1
	c0,10,0,34.3,0,34.3L6.3,57.7L6.3,57.7z"/>
</svg>
