<?xml version="1.0" encoding="utf-8"?>
<!-- Generator: Adobe Illustrator 24.0.2, SVG Export Plug-In . SVG Version: 6.00 Build 0)  -->
<svg version="1.1" id="Layer_1" focusable="false" xmlns="http://www.w3.org/2000/svg" xmlns:xlink="http://www.w3.org/1999/xlink"
	 x="0px" y="0px" viewBox="0 0 64 64" style="enable-background:new 0 0 64 64;" xml:space="preserve">
<path d="M61.5,28.9h-14V8.8c0-0.9-0.7-1.6-1.5-1.6H18c-0.9,0-1.5,0.7-1.5,1.6v20.1H2.5c-0.9,0-1.5,0.7-1.5,1.6v24.8
	c0,0.9,0.7,1.5,1.5,1.5h58.9c0.9,0,1.5-0.7,1.5-1.5V30.5C63,29.6,62.3,28.9,61.5,28.9z M44.4,32h6.2v6l-3.1-1l-3.1,1V32z M35.1,10.3
	v6l-3.1-1l-3.1,1v-6H35.1z M19.6,10.3h6.2v10.3l6.2-2.1l6.2,2.1V10.3h6.2v18.6H19.6V10.3z M19.6,32v6l-3.1-1l-3.1,1v-6H19.6z
	 M4.1,32h6.2v10.3l6.2-2.1l6.2,2.1V32h7.8v21.7H4.1V32z M59.9,53.7H33.5V32h7.8v10.3l6.2-2.1l6.2,2.1V32h6.2V53.7z"/>
</svg>
