<?xml version="1.0" encoding="utf-8"?>
<!-- Generator: Adobe Illustrator 24.0.2, SVG Export Plug-In . SVG Version: 6.00 Build 0)  -->
<svg version="1.1" xmlns="http://www.w3.org/2000/svg" xmlns:xlink="http://www.w3.org/1999/xlink" x="0px" y="0px"
	 viewBox="0 0 64 64" style="enable-background:new 0 0 64 64;" xml:space="preserve">
<g id="Layer_1" focusable="false">
</g>
<g id="Layer_2">
	<g>
		<g>
			<path d="M9.4,11.9h26c0.2,0,0.4,0.2,0.4,0.4v1.5c0,0.2-0.2,0.4-0.4,0.4h-26C9.2,14.2,9,14,9,13.8v-1.5C9,12.1,9.2,11.9,9.4,11.9z
				"/>
			<path d="M9.4,17.5h26c0.2,0,0.4,0.2,0.4,0.4v1.5c0,0.2-0.2,0.4-0.4,0.4h-26c-0.2,0-0.4-0.2-0.4-0.4v-1.5
				C9,17.7,9.2,17.5,9.4,17.5z"/>
			<path d="M9.4,23.1h26c0.2,0,0.4,0.2,0.4,0.4V25c0,0.2-0.2,0.4-0.4,0.4h-26C9.2,25.5,9,25.3,9,25v-1.5C9,23.3,9.2,23.1,9.4,23.1z"
				/>
			<path d="M9.4,28.7h26c0.2,0,0.4,0.2,0.4,0.4v1.5c0,0.2-0.2,0.4-0.4,0.4h-26c-0.2,0-0.4-0.2-0.4-0.4v-1.5
				C9,28.9,9.2,28.7,9.4,28.7z"/>
			<path d="M9.4,34.3h26c0.2,0,0.4,0.2,0.4,0.4v1.5c0,0.2-0.2,0.4-0.4,0.4h-26c-0.2,0-0.4-0.2-0.4-0.4v-1.5
				C9,34.5,9.2,34.3,9.4,34.3z"/>
			<path d="M9.3,49.6h19.1c0.2,0,0.3,0.2,0.3,0.4v1.5c0,0.2-0.1,0.4-0.3,0.4H9.3C9.2,52,9,51.8,9,51.6v-1.5
				C9,49.8,9.2,49.6,9.3,49.6z"/>
		</g>
		<path d="M40.5,51.5v3.2c0,1-1.7,2.7-2.7,2.7H7.2c-1,0-2.8-1.1-2.8-2.7V9.1c0-1,1.3-2.4,2.3-2.4l31.6,0.1c1.2,0,2.2,1,2.2,2.3v19.1
			v2.4l2.6-2.7v-3v-6.2c0-0.2,0-5.8,0-9.9c0-2.4-1.9-4.3-4.3-4.3H7c-2.9,0-5.2,2.3-5.2,5.2v44.8c0,2.9,2.3,5.2,5.2,5.2h31
			c2.9,0,5.2-2.3,5.2-5.2v-5.6L40.5,51.5z"/>
		<path d="M60.6,20.9L60.6,20.9c-1-1-2.5-1.6-3.9-1.6h0c-1.5,0-2.9,0.6-4,1.7L32,41.6l-2.3,8.9c-0.2,0.8,0.5,1.5,1.3,1.3l8.9-2.3
			l20.6-20.6c1.1-1,1.7-2.5,1.7-4S61.6,22,60.6,20.9z M56.6,21.5C56.6,21.5,56.6,21.5,56.6,21.5c0.9,0,1.8,0.4,2.4,1
			c0.6,0.6,1,1.5,1,2.4c0,0.8-0.3,1.5-0.8,2.1l-4.8-4.8C55.1,21.8,55.8,21.5,56.6,21.5z M34.5,42.2l15.8-15.8l4.8,4.8L39.3,47
			L34.5,42.2z M51.8,24.9l1-1l4.8,4.8l-1,1L51.8,24.9z M33.5,44.3l3.6,3.6l-4.9,1.3L33.5,44.3z"/>
	</g>
</g>
</svg>
