<?xml version="1.0" encoding="utf-8"?>
<!-- Generator: Adobe Illustrator 24.0.2, SVG Export Plug-In . SVG Version: 6.00 Build 0)  -->
<svg version="1.1" id="Layer_1" focusable="false" xmlns="http://www.w3.org/2000/svg" xmlns:xlink="http://www.w3.org/1999/xlink"
	 x="0px" y="0px" viewBox="0 0 64 64" style="enable-background:new 0 0 64 64;" xml:space="preserve">
<path d="M60.8,16.3H26.3c-1.2,0-2.2,0.9-2.2,1.9v9c0,1.1,1,1.9,2.2,1.9h34.5c1.2,0,2.2-0.9,2.2-1.9v-9C63,17.1,62,16.3,60.8,16.3z
	 M60.5,27H51v-8.8h9.5c0.2,0,0.4,0.2,0.4,0.4v8C60.9,26.9,60.7,27,60.5,27z"/>
<path d="M60.8,43.5H26.3c-1.2,0-2.2,0.9-2.2,1.9v9c0,1.1,1,1.9,2.2,1.9h34.5c1.2,0,2.2-0.9,2.2-1.9v-9C63,44.4,62,43.5,60.8,43.5z
	 M60.5,54.3H41v-8.8h19.5c0.2,0,0.4,0.2,0.4,0.4v8C60.9,54.1,60.7,54.3,60.5,54.3z"/>
<g>
	<g>
		<g>
			<path d="M11.4,18.1c3.1,0,5.5-2.5,5.5-5.5S14.4,7,11.4,7s-5.5,2.4-5.5,5.5S8.3,18.1,11.4,18.1z M11.4,8.4c2.3,0,4.1,1.9,4.1,4.1
				s-1.9,4.1-4.1,4.1s-4.1-1.9-4.1-4.1S9.1,8.4,11.4,8.4z"/>
			<path d="M21.1,29.1h-0.9c-0.2,0-0.3-0.1-0.3-0.3c-0.1-4.9-3.5-8.2-8.4-8.2c-4.8,0-8.3,3.4-8.4,8.2c0,0.2-0.1,0.3-0.3,0.3h-1
				c-0.2,0-0.3-0.1-0.3-0.3c0.1-5.7,4.3-9.8,10-9.8c5.8,0,9.9,4,10,9.8C21.4,29,21.2,29.1,21.1,29.1z"/>
		</g>
	</g>
</g>
<g>
	<g>
		<g>
			<path d="M11.4,45.3c3.1,0,5.5-2.5,5.5-5.5s-2.5-5.5-5.5-5.5s-5.5,2.4-5.5,5.5S8.3,45.3,11.4,45.3z M11.4,35.6
				c2.3,0,4.1,1.9,4.1,4.1s-1.9,4.1-4.1,4.1S7.2,42,7.2,39.8S9.1,35.6,11.4,35.6z"/>
			<path d="M21.1,56.4h-0.9c-0.2,0-0.3-0.1-0.3-0.3c-0.1-4.9-3.5-8.2-8.4-8.2c-4.8,0-8.3,3.4-8.4,8.2c0,0.2-0.1,0.3-0.3,0.3h-1
				c-0.2,0-0.3-0.1-0.3-0.3c0.1-5.7,4.3-9.8,10-9.8c5.8,0,9.9,4,10,9.8C21.4,56.2,21.2,56.4,21.1,56.4z"/>
		</g>
	</g>
</g>
</svg>
