<?xml version="1.0" encoding="utf-8"?>
<!-- Generator: Adobe Illustrator 24.0.2, SVG Export Plug-In . SVG Version: 6.00 Build 0)  -->
<svg version="1.1" id="Layer_1" xmlns="http://www.w3.org/2000/svg" xmlns:xlink="http://www.w3.org/1999/xlink" x="0px" y="0px"
	 viewBox="0 0 64 64" style="enable-background:new 0 0 64 64;" xml:space="preserve">
<g id="Layer_2_1_">
	<g id="CHAT_2.0">
		<circle cx="29.8" cy="26" r="1.9"/>
		<circle cx="22.3" cy="26" r="1.9"/>
		<circle cx="14.9" cy="26" r="1.9"/>
		<path d="M1.8,43.6c-0.2,0-0.4-0.1-0.6-0.3c-0.2-0.2-0.2-0.5-0.1-0.8l3.8-7.7c-2.3-2.6-3.6-5.9-3.6-9.4c0-9.3,9.5-16.9,21.2-16.9
			c11.7,0,21.2,7.6,21.2,16.9c0,9.3-9.5,16.9-21.2,16.9c0,0-0.1,0-0.1,0c-3.1,0-6.2-0.6-9.1-1.7L2,43.5C1.9,43.5,1.8,43.6,1.8,43.6z
			 M22.4,9.9c-10.9,0-19.7,6.9-19.7,15.4c0,3.3,1.3,6.4,3.6,8.8c0.2,0.2,0.3,0.6,0.1,0.8l-3.3,6.7L13,39c0.2,0,0.3,0,0.5,0
			c2.8,1.1,5.8,1.7,8.8,1.7c0,0,0.1,0,0.1,0c10.9,0,19.7-6.9,19.7-15.4C42.2,16.8,33.3,9.9,22.4,9.9z"/>
		<path d="M62.2,55.6c-0.1,0-0.1,0-0.2,0L52.3,53c-2.6,1-5.3,1.5-8,1.5c-8,0-15.1-4.1-17.6-10.2l1.4-0.6c2.2,5.4,8.9,9.3,16.2,9.3
			c2.6,0,5.2-0.5,7.7-1.4c0.2-0.1,0.3-0.1,0.5,0l8.4,2.2l-2.7-5.6c-0.1-0.3-0.1-0.6,0.1-0.8c1.9-2.1,3-4.7,3.1-7.6
			c0-6.8-6.6-12.5-15.3-13.1l0.1-1.5c9.5,0.8,16.6,7.1,16.6,14.7c0,3-1.1,5.9-3.1,8.2l3.2,6.6c0.1,0.3,0.1,0.6-0.1,0.8
			C62.7,55.5,62.5,55.6,62.2,55.6z"/>
	</g>
</g>
</svg>
