<?xml version="1.0" encoding="utf-8"?>
<!-- Generator: Adobe Illustrator 24.0.2, SVG Export Plug-In . SVG Version: 6.00 Build 0)  -->
<svg version="1.1" id="Layer_1" xmlns="http://www.w3.org/2000/svg" xmlns:xlink="http://www.w3.org/1999/xlink" x="0px" y="0px"
	 viewBox="0 0 64 64" style="enable-background:new 0 0 64 64;" xml:space="preserve">
<path d="M29.4,39.7h5.3c2.4,0,4.4-1.9,4.4-4.4c0-1.7-1-3.2-2.5-3.9c1.6-1.8,1.4-4.6-0.5-6.1c-0.8-0.7-1.8-1-2.8-1h-3.9
	c-0.5,0-1,0.4-1,1v13.5C28.5,39.3,28.9,39.7,29.4,39.7z M30.4,26.2h2.9c1.3,0,2.4,1.1,2.4,2.4S34.6,31,33.3,31h-2.9
	C30.4,31,30.4,26.2,30.4,26.2z M30.4,33h4.4c1.3,0,2.4,1.1,2.4,2.4s-1.1,2.4-2.4,2.4h-4.4V33z M26.5,39.1l-5.4-14.2
	c-0.1-0.4-0.5-0.6-0.9-0.6h-1c-0.4,0-0.8,0.3-0.9,0.6L13,39.1c-0.1,0.3,0,0.5,0.3,0.6c0.1,0,0.1,0,0.2,0h1c0.2,0,0.4-0.1,0.5-0.3
	l1.7-4.5h6.2l1.7,4.5c0.1,0.2,0.3,0.3,0.5,0.3h1c0.3,0,0.5-0.2,0.5-0.5C26.6,39.2,26.6,39.1,26.5,39.1z M17.4,33l2.4-6.2l2.4,6.2
	C22.1,33,17.4,33,17.4,33z M56.1,23.2H54c-0.1,0-0.3-0.2-0.3-0.3V8.7c0-0.2,0.1-0.3,0.3-0.3h2.1c0.1,0,0.3,0.2,0.3,0.3v14.1
	C56.4,23,56.3,23.2,56.1,23.2z M56.1,39.4H54c-0.1,0-0.3-0.2-0.3-0.3V25c0-0.2,0.1-0.3,0.3-0.3h2.1c0.1,0,0.3,0.2,0.3,0.3V39
	C56.4,39.2,56.3,39.4,56.1,39.4z M56.1,55.6H54c-0.1,0-0.3-0.2-0.3-0.3V41.2c0-0.2,0.1-0.3,0.3-0.3h2.1c0.1,0,0.3,0.2,0.3,0.3v14.1
	C56.4,55.5,56.3,55.6,56.1,55.6z M49.2,62H11.1c-1.9,0-3.5-1.6-3.5-3.5v-53C7.6,3.6,9.2,2,11.1,2h38.1c1.9,0,3.5,1.6,3.5,3.5v53
	C52.7,60.4,51.1,62,49.2,62z M11.1,4.8c-0.4,0-0.7,0.3-0.7,0.7v53c0,0.4,0.3,0.7,0.7,0.7h38.1c0.4,0,0.7-0.3,0.7-0.7v-53
	c0-0.4-0.3-0.7-0.7-0.7H11.1z"/>
</svg>
