<?xml version="1.0" encoding="utf-8"?>
<!-- Generator: Adobe Illustrator 24.0.2, SVG Export Plug-In . SVG Version: 6.00 Build 0)  -->
<svg version="1.1" id="Layer_1" focusable="false" xmlns="http://www.w3.org/2000/svg" xmlns:xlink="http://www.w3.org/1999/xlink"
	 x="0px" y="0px" viewBox="0 0 64 64" style="enable-background:new 0 0 64 64;" xml:space="preserve">
<path d="M47.4,26.2c2.4,0,4.4-2,4.4-4.4s-2-4.4-4.4-4.4s-4.4,2-4.4,4.4S45,26.2,47.4,26.2z M47.4,20.3c0.8,0,1.5,0.7,1.5,1.5
	c0,0.8-0.7,1.5-1.5,1.5c-0.8,0-1.5-0.7-1.5-1.5C46,21,46.6,20.3,47.4,20.3z M47.4,29.1c-4.8,0-8.7,3.9-8.7,8.7s3.9,8.7,8.7,8.7
	s8.7-3.9,8.7-8.7C56.2,33,52.3,29.1,47.4,29.1z M47.4,43.7c-3.2,0-5.8-2.6-5.8-5.8c0-3.2,2.6-5.8,5.8-5.8c3.2,0,5.8,2.6,5.8,5.8
	C53.3,41,50.6,43.7,47.4,43.7z M47.4,35.6c-1.2,0-2.2,1-2.2,2.2s1,2.2,2.2,2.2s2.2-1,2.2-2.2S48.6,35.6,47.4,35.6z M57.6,11.6H37.2
	c-2.4,0-4.4,2-4.4,4.4v32c0,2.4,2,4.4,4.4,4.4h20.4c2.4,0,4.4-2,4.4-4.4V16C62,13.6,60,11.6,57.6,11.6z M59.1,48
	c0,0.8-0.7,1.5-1.5,1.5H37.2c-0.8,0-1.5-0.7-1.5-1.5V16c0-0.8,0.7-1.5,1.5-1.5h20.4c0.8,0,1.5,0.7,1.5,1.5V48z M10.9,49.5
	c-0.4,0-0.7,0.3-0.7,0.7v1.5c0,0.4,0.3,0.7,0.7,0.7h21.8c-1.2-0.8-1.5-1.6-1.5-2.9L10.9,49.5L10.9,49.5z M2,14.5v26.2
	c0,1.6,1.3,2.9,2.9,2.9h26.1v-2.9H4.9V14.5h26.2c0.2-1.1,0.4-2.3,2-2.9H4.9C3.3,11.6,2,12.9,2,14.5z M17.4,22.9v9.2
	c0,0.7,0.8,1.2,1.4,0.8l7.8-4.6c0.6-0.4,0.6-1.2,0-1.6l-7.8-4.6C18.2,21.7,17.4,22.2,17.4,22.9z"/>
</svg>
