<?xml version="1.0" encoding="utf-8"?>
<!-- Generator: Adobe Illustrator 24.0.2, SVG Export Plug-In . SVG Version: 6.00 Build 0)  -->
<svg version="1.1" xmlns="http://www.w3.org/2000/svg" xmlns:xlink="http://www.w3.org/1999/xlink" x="0px" y="0px"
	 viewBox="0 0 64 64" style="enable-background:new 0 0 64 64;" xml:space="preserve">
<g id="Layer_2">
	<path d="M31.9,32c4.6,0,8.3-3.7,8.3-8.3s-3.7-8.3-8.3-8.3s-8.3,3.7-8.3,8.3S27.3,32,31.9,32z M31.9,17.5c3.4,0,6.2,2.8,6.2,6.2
		s-2.8,6.2-6.2,6.2s-6.2-2.8-6.2-6.2S28.5,17.5,31.9,17.5z M20,37.8c-1.8-1.5-4.1-2.3-6.9-2.3c-5.9,0-10.2,4.2-10.3,10.1
		c0,0.4-0.3,0.7-0.7,0.7H0.8c-0.4,0-0.7-0.3-0.7-0.7c0.2-7.4,5.6-12.7,13-12.7c3.5,0,6.5,1.2,8.8,3.1C21.2,36.6,20.6,37.2,20,37.8z
		 M63.9,45.6c0,0.4-0.3,0.7-0.7,0.7h-1.2c-0.4,0-0.7-0.3-0.7-0.7c-0.2-6.1-4.2-10.1-10.3-10.1c-2.8,0-5.1,0.9-6.9,2.5
		c-0.6-0.7-1.2-1.3-1.9-1.8c2.3-2,5.3-3.2,8.7-3.2C58.4,32.9,63.8,38.1,63.9,45.6z M46.4,48.6H45c-0.3,0-0.5-0.2-0.5-0.5
		c-0.2-7.4-5.2-12.3-12.6-12.3c-7.2,0-12.4,5.1-12.6,12.3c0,0.3-0.2,0.5-0.5,0.5h-1.5c-0.3,0-0.5-0.2-0.5-0.5
		c0.2-8.5,6.5-14.7,15-14.7c8.7,0,14.8,6,15,14.7C46.9,48.4,46.7,48.6,46.4,48.6z M51,31.3c-4,0-7.2-3.2-7.2-7.2
		c0-4,3.2-7.2,7.2-7.2c4,0,7.2,3.2,7.2,7.2S54.9,31.3,51,31.3z M51,19.1c-2.8,0-5,2.3-5,5s2.3,5,5,5c2.8,0,5-2.3,5-5
		S53.7,19.1,51,19.1z M13,31.3c-4,0-7.2-3.2-7.2-7.2c0-4,3.2-7.2,7.2-7.2c4,0,7.2,3.2,7.2,7.2S17,31.3,13,31.3z M13,19.1
		c-2.8,0-5,2.3-5,5s2.3,5,5,5c2.8,0,5-2.3,5-5S15.8,19.1,13,19.1z"/>
</g>
<g id="Layer_3">
	<path d="M46.5,48.6h-1.4c-0.3,0-0.5-0.2-0.5-0.5c-0.2-7.4-5.2-12.3-12.6-12.3c-7.2,0-12.4,5.1-12.6,12.3c0,0.3-0.2,0.5-0.5,0.5
		h-1.5c-0.3,0-0.5-0.2-0.5-0.5c0.2-8.5,6.5-14.7,15-14.7c8.7,0,14.8,6,15,14.7C47,48.4,46.8,48.6,46.5,48.6z"/>
</g>
</svg>
