<?xml version="1.0" encoding="utf-8"?>
<!-- Generator: Adobe Illustrator 24.0.2, SVG Export Plug-In . SVG Version: 6.00 Build 0)  -->
<svg version="1.1" id="Layer_1" focusable="false" xmlns="http://www.w3.org/2000/svg" xmlns:xlink="http://www.w3.org/1999/xlink"
	 x="0px" y="0px" viewBox="0 0 64 64" style="enable-background:new 0 0 64 64;" xml:space="preserve">
<path d="M46.5,32c0-1.6,1.3-2.9,2.9-2.9c1.6,0,2.9,1.3,2.9,2.9c0,1.6-1.3,2.9-2.9,2.9C47.8,34.9,46.5,33.6,46.5,32z M41.7,34.9
	c1.6,0,2.9-1.3,2.9-2.9c0-1.6-1.3-2.9-2.9-2.9c-1.6,0-2.9,1.3-2.9,2.9C38.8,33.6,40.1,34.9,41.7,34.9z M63,19.4
	c0,1.5-0.6,2.8-1.5,3.9c0.9,1,1.5,2.4,1.5,3.9v9.7c0,1.5-0.6,2.8-1.5,3.9c0.9,1,1.5,2.4,1.5,3.9v9.7c0,3.2-2.6,5.8-5.8,5.8H6.8
	c-3.2,0-5.8-2.6-5.8-5.8v-9.7c0-1.5,0.6-2.8,1.5-3.9c-0.9-1-1.5-2.4-1.5-3.9v-9.7c0-1.5,0.6-2.8,1.5-3.9c-0.9-1-1.5-2.4-1.5-3.9V9.7
	c0-3.2,2.6-5.8,5.8-5.8h50.4c3.2,0,5.8,2.6,5.8,5.8L63,19.4L63,19.4z M4.9,19.4c0,1.1,0.9,1.9,1.9,1.9h50.4c1.1,0,1.9-0.9,1.9-1.9
	V9.7c0-1.1-0.9-1.9-1.9-1.9H6.8c-1.1,0-1.9,0.9-1.9,1.9V19.4z M57.2,25.2H6.8c-1.1,0-1.9,0.9-1.9,1.9v9.7c0,1.1,0.9,1.9,1.9,1.9
	h50.4c1.1,0,1.9-0.9,1.9-1.9v-9.7C59.1,26.1,58.3,25.2,57.2,25.2z M59.1,44.6c0-1.1-0.9-1.9-1.9-1.9H6.8c-1.1,0-1.9,0.9-1.9,1.9v9.7
	c0,1.1,0.9,1.9,1.9,1.9h50.4c1.1,0,1.9-0.9,1.9-1.9L59.1,44.6L59.1,44.6z M49.4,17.5c1.6,0,2.9-1.3,2.9-2.9s-1.3-2.9-2.9-2.9
	c-1.6,0-2.9,1.3-2.9,2.9S47.8,17.5,49.4,17.5z M41.7,17.5c1.6,0,2.9-1.3,2.9-2.9s-1.3-2.9-2.9-2.9c-1.6,0-2.9,1.3-2.9,2.9
	S40.1,17.5,41.7,17.5z M49.4,46.5c-1.6,0-2.9,1.3-2.9,2.9c0,1.6,1.3,2.9,2.9,2.9c1.6,0,2.9-1.3,2.9-2.9C52.3,47.8,51,46.5,49.4,46.5
	z M41.7,46.5c-1.6,0-2.9,1.3-2.9,2.9c0,1.6,1.3,2.9,2.9,2.9c1.6,0,2.9-1.3,2.9-2.9C44.6,47.8,43.3,46.5,41.7,46.5z"/>
</svg>
