<?xml version="1.0" encoding="utf-8"?>
<!-- Generator: Adobe Illustrator 24.2.0, SVG Export Plug-In . SVG Version: 6.00 Build 0)  -->
<svg version="1.1" id="Layer_1" focusable="false" xmlns="http://www.w3.org/2000/svg" xmlns:xlink="http://www.w3.org/1999/xlink"
	 x="0px" y="0px" viewBox="0 0 64 64" style="enable-background:new 0 0 64 64;" xml:space="preserve">
<style type="text/css">
	.st0{font-family:'CircularStd-Medium';}
	.st1{font-size:22px;}
</style>
<path d="M52.3,49.9l-9.8,9.8c-0.9,1-2.2,1.5-3.5,1.5H15.1c-2.7,0-4.9-2.2-4.9-4.9V7.6c0-2.7,2.2-4.9,4.9-4.9h33.7
	c2.7,0,4.9,2.2,4.9,4.9v38.8C53.8,47.8,53.2,49,52.3,49.9L52.3,49.9z M51.4,7.6c0-1.5-1.1-2.6-2.5-2.6H15.1c-1.4,0-2.6,1.2-2.6,2.6
	v48.7c0,1.4,1.2,2.6,2.6,2.6h21.3V46c0-1.2,0.9-2.1,2.1-2.1h12.9V7.6z M38.8,46.2v12.9l0.9-0.3c0.4-0.1,0.8-0.3,1.2-0.7l9.8-9.8
	c0.2-0.2,0.5-0.6,0.7-1.2l0.2-0.9C51.6,46.2,38.8,46.2,38.8,46.2z"/>
<text transform="matrix(1 0 0 1 27.6348 36.5151)" class="st0 st1">W</text>
</svg>
