<?xml version="1.0" encoding="utf-8"?>
<!-- Generator: Adobe Illustrator 24.1.0, SVG Export Plug-In . SVG Version: 6.00 Build 0)  -->
<svg version="1.1" id="Layer_1" focusable="false" xmlns="http://www.w3.org/2000/svg" xmlns:xlink="http://www.w3.org/1999/xlink"
	 x="0px" y="0px" viewBox="0 0 64 64" style="enable-background:new 0 0 64 64;" xml:space="preserve">
<path d="M52.3,49.9l-9.8,9.8c-0.9,1-2.2,1.5-3.5,1.5H15.1c-2.7,0-4.9-2.2-4.9-4.9V7.6c0-2.7,2.2-4.9,4.9-4.9h33.7
	c2.7,0,4.9,2.2,4.9,4.9v38.8C53.8,47.8,53.2,49,52.3,49.9L52.3,49.9z M51.4,7.6c0-1.5-1.1-2.6-2.5-2.6H15.1c-1.4,0-2.6,1.2-2.6,2.6
	v48.7c0,1.4,1.2,2.6,2.6,2.6h21.3V46c0-1.2,0.9-2.1,2.1-2.1h12.9V7.6z M38.8,46.2v12.9l0.9-0.3c0.4-0.1,0.8-0.3,1.2-0.7l9.8-9.8
	c0.2-0.2,0.5-0.6,0.7-1.2l0.2-0.9C51.6,46.2,38.8,46.2,38.8,46.2z M22.08,26.53v4.71h-2.04V19.19h4.47c2.31,0,3.84,1.56,3.84,3.67
	c0,2.12-1.53,3.67-3.84,3.67H22.08z M24.21,24.73c1.29,0,2.07-0.71,2.07-1.85c0-1.16-0.78-1.89-2.07-1.89h-2.12v3.74H24.21z
	 M30.24,31.24V19.19h4.27c3.28,0,5.86,2.18,5.86,6.05c0,3.86-2.62,6-5.88,6C34.49,31.24,30.24,31.24,30.24,31.24z M34.43,29.37
	c2.09,0,3.82-1.34,3.82-4.13c0-2.82-1.72-4.18-3.81-4.18h-2.16v8.31C32.28,29.37,34.43,29.37,34.43,29.37z M42.52,31.24V19.19h7.5
	v1.92h-5.46v3.38h4.9v1.89h-4.9v4.86C44.56,31.24,42.52,31.24,42.52,31.24z"/>
</svg>
