<?xml version="1.0" encoding="utf-8"?>
<!-- Generator: Adobe Illustrator 24.0.2, SVG Export Plug-In . SVG Version: 6.00 Build 0)  -->
<svg version="1.1" id="Layer_1" focusable="false" xmlns="http://www.w3.org/2000/svg" xmlns:xlink="http://www.w3.org/1999/xlink"
	 x="0px" y="0px" viewBox="0 0 64 64" style="enable-background:new 0 0 64 64;" xml:space="preserve">
<path d="M53.6,32h-1.9c-0.5,0-0.9,0.4-0.9,0.9v23.4c0,1-0.8,1.9-1.9,1.9H7.6c-1,0-1.9-0.8-1.9-1.9V15.1c0-1,0.8-1.9,1.9-1.9h23.4
	c0.5,0,0.9-0.4,0.9-0.9v-1.9c0-0.5-0.4-0.9-0.9-0.9H7.6C4.5,9.5,2,12,2,15.1v41.2C2,59.5,4.5,62,7.6,62l0,0h41.2
	c3.1,0,5.6-2.5,5.6-5.6l0,0V32.9C54.5,32.4,54.1,32,53.6,32z M60.6,2L44.7,2c-0.8,0-1.4,0.6-1.4,1.4l0,0v1.2c0,0.8,0.6,1.4,1.4,1.4
	l10.5,0l0.1,0.1L17.4,43.9c-0.6,0.5-0.6,1.4,0,2l0,0l0.7,0.7c0.5,0.6,1.4,0.6,2,0l0,0L57.9,8.7L58,8.8l0,10.5c0,0.8,0.6,1.4,1.4,1.4
	h1.2c0.8,0,1.4-0.6,1.4-1.4l0-15.9C62,2.6,61.4,2,60.6,2z"/>
</svg>
