<?xml version="1.0" encoding="utf-8"?>
<!-- Generator: Adobe Illustrator 24.0.2, SVG Export Plug-In . SVG Version: 6.00 Build 0)  -->
<svg version="1.1" id="Layer_1" focusable="false" xmlns="http://www.w3.org/2000/svg" xmlns:xlink="http://www.w3.org/1999/xlink"
	 x="0px" y="0px" viewBox="0 0 64 64" style="enable-background:new 0 0 64 64;" xml:space="preserve">
<style type="text/css">
	.st0{display:none;}
	.st1{display:none;fill:#FFFFFF;}
</style>
<g>
	<path d="M44.5,40.9c1.1-1.3,2-2.8,2.8-4.3l0.7-3.3h-1.9L44.5,40.9z"/>
	<path d="M44.3,41H41c-0.5,0.5-1.1,1-1.6,1.5H43C43.5,42.1,43.9,41.6,44.3,41z"/>
	<path d="M36.6,44.6c-2.4,1.4-5,2.4-7.9,2.9c2.3-3.4,4.1-6.9,5.4-10.4h9.1l0.5-2.5H35c0.8-2.7,1.3-5.4,1.5-8h11
		c-0.1,1.6-0.4,3.2-0.8,4.7h2.6c0.5-1.9,0.7-3.9,0.7-6c0-6.5-2.6-12.9-7.3-17.6c-4.6-4.6-11-7.2-17.5-7.2c-0.4,0-0.8,0-1.2,0
		C10.9,0.8,0.2,11.7,0.2,24.9C0.1,38.6,11.2,50,25,50.3c6,0,11.5-2.1,15.8-5.7H36.6z M32.4,34.7H17.7c-0.9-2.7-1.4-5.4-1.6-8h18
		C33.9,29.3,33.3,32,32.4,34.7z M16,24.2c0-3.7,0.7-7.2,2-10.7h14.1c1.3,3.4,2,7,2,10.7H16z M44.1,13.5c2,3.2,3.1,6.9,3.3,10.7H36.6
		c0-3.6-0.6-7.2-1.8-10.7H44.1z M40.9,9.5c0.5,0.5,1,1,1.4,1.5h-8.6c-1.2-2.7-2.7-5.2-4.7-7.7C33.5,4.1,37.7,6.3,40.9,9.5z M24.6,3
		c0.1,0,0.3,0,0.4,0c0,0,0.1,0,0.1,0c0.2,0,0.3,0,0.5,0c2.3,2.5,4.1,5.2,5.5,8H19.1C20.5,8.2,22.3,5.6,24.6,3z M21.1,3.3
		c-1.9,2.5-3.5,5-4.7,7.7H7.7C11,7,15.8,4.2,21.1,3.3z M6,13.5h9.5c-1.2,3.4-1.8,7-1.8,10.7H2.7C2.9,20.3,4,16.6,6,13.5z M2.7,26.6
		h11c0.2,2.7,0.7,5.3,1.5,8H4.8C3.7,32.2,2.9,29.5,2.7,26.6z M6.2,37.1h9.9c1.3,3.5,3.1,6.9,5.4,10.3C15,46.3,9.5,42.4,6.2,37.1z
		 M25,47.8c-0.1,0-0.2,0-0.3,0c-2.6-3.5-4.6-7.1-6-10.6h12.9c-1.4,3.5-3.5,7.1-6.1,10.6C25.3,47.8,25.2,47.8,25,47.8z"/>
	<path d="M42.8,39L42.8,39L42.8,39C42.8,39,42.8,39,42.8,39z"/>
</g>
<path d="M61.5,53.6v-1.7c0-0.2-0.2-0.4-0.4-0.4h-5.5c-0.3,0-0.4-0.2-0.4-0.5l1.6-7.7c0-0.2,0.2-0.3,0.4-0.3h6.2
	c0.2,0,0.4-0.2,0.4-0.4V41c0-0.2-0.2-0.4-0.4-0.4h-5.5c-0.3,0-0.4-0.2-0.4-0.5l1.5-6.8c0.1-0.2-0.1-0.5-0.4-0.5h-2
	c-0.2,0-0.4,0.1-0.4,0.3l-1.5,7.1c0,0.2-0.2,0.3-0.4,0.3h-6.8c-0.3,0-0.4-0.2-0.4-0.5l1.5-6.8c0.1-0.2-0.1-0.5-0.4-0.5h-2
	c-0.2,0-0.4,0.1-0.4,0.3l-1.5,7.1c0,0.2-0.2,0.3-0.4,0.3h-5.9c-0.2,0-0.4,0.2-0.4,0.4v1.7c0,0.2,0.2,0.4,0.4,0.4H43
	c0.3,0,0.4,0.2,0.4,0.5l-1.6,7.7c0,0.2-0.2,0.3-0.4,0.3h-5.8c-0.2,0-0.4,0.2-0.4,0.4v1.7c0,0.2,0.2,0.4,0.4,0.4h5.1
	c0.3,0,0.4,0.2,0.4,0.5l-1.5,6.9c-0.1,0.2,0.1,0.5,0.4,0.5h2c0.2,0,0.4-0.1,0.4-0.3l1.5-7.2c0-0.2,0.2-0.3,0.4-0.3h6.8
	c0.3,0,0.4,0.2,0.4,0.5l-1.5,6.9c-0.1,0.2,0.1,0.5,0.4,0.5h2c0.2,0,0.4-0.1,0.4-0.3l1.5-7.2c0-0.2,0.2-0.3,0.4-0.3h6.3
	C61.3,54,61.5,53.8,61.5,53.6z M51.9,51.5h-6.8c-0.3,0-0.4-0.2-0.4-0.5l1.6-7.7c0-0.2,0.2-0.3,0.4-0.3h6.8c0.3,0,0.4,0.2,0.4,0.5
	l-1.6,7.7C52.2,51.4,52.1,51.5,51.9,51.5z"/>
</svg>
