<?xml version="1.0" encoding="utf-8"?>
<!-- Generator: Adobe Illustrator 24.0.2, SVG Export Plug-In . SVG Version: 6.00 Build 0)  -->
<svg version="1.1" id="Layer_1" focusable="false" xmlns="http://www.w3.org/2000/svg" xmlns:xlink="http://www.w3.org/1999/xlink"
	 x="0px" y="0px" viewBox="0 0 64 64" style="enable-background:new 0 0 64 64;" xml:space="preserve">
<path d="M46,19v4.5c0,0.3-0.2,0.5-0.5,0.5h-1c-0.3,0-0.5-0.2-0.5-0.5V20H33V44h4.5c0.3,0,0.5,0.2,0.5,0.5v1c0,0.3-0.2,0.5-0.5,0.5
	h-11c-0.3,0-0.5-0.2-0.5-0.5v-1c0-0.3,0.2-0.5,0.5-0.5H31V20H20v3.5c0,0.3-0.2,0.5-0.5,0.5h-1c-0.3,0-0.5-0.2-0.5-0.5V19
	c0-0.6,0.5-1,1-1H45C45.6,18,46,18.4,46,19z"/>
<path d="M50.9,62H13.1c-2.7,0-4.8-2.2-4.8-4.8V6.8c0-2.7,2.2-4.8,4.8-4.8h37.9c2.7,0,4.8,2.2,4.8,4.8v50.4
	C55.8,59.8,53.6,62,50.9,62z M13.1,4.9c-1.1,0-1.9,0.9-1.9,1.9v50.4c0,1.1,0.9,1.9,1.9,1.9h37.9c1.1,0,1.9-0.9,1.9-1.9V6.8
	c0-1.1-0.9-1.9-1.9-1.9H13.1z"/>
</svg>
