<?xml version="1.0" encoding="utf-8"?>
<!-- Generator: Adobe Illustrator 24.0.2, SVG Export Plug-In . SVG Version: 6.00 Build 0)  -->
<svg version="1.1" id="Layer_1" focusable="false" xmlns="http://www.w3.org/2000/svg" xmlns:xlink="http://www.w3.org/1999/xlink"
	 x="0px" y="0px" viewBox="0 0 64 64" style="enable-background:new 0 0 64 64;" xml:space="preserve">
<path d="M32,41.8c-1.8,0-3.3,1.5-3.3,3.3c0,1.8,1.5,3.3,3.3,3.3c1.8,0,3.3-1.5,3.3-3.3C35.3,43.3,33.8,41.8,32,41.8z M32.9,39H31
	c-0.8,0-1.4-0.6-1.4-1.4v0c0-8.2,9.1-7.4,9.1-12.6c0-2.3-2.1-4.7-6.7-4.7c-3.4,0-5.2,1.1-6.9,3.4c-0.5,0.6-1.3,0.7-1.9,0.3l-1.5-1.1
	c-0.7-0.5-0.8-1.4-0.3-2c2.5-3.2,5.4-5.2,10.7-5.2c6.1,0,11.4,3.5,11.4,9.4c0,7.9-9.1,7.5-9.1,12.6v0C34.3,38.4,33.7,39,32.9,39
	L32.9,39z M32,6.7C45.9,6.7,57.3,18,57.3,32C57.3,45.9,46,57.3,32,57.3C18.1,57.3,6.7,46,6.7,32C6.7,18.1,18,6.7,32,6.7 M32,3
	C16,3,3,16,3,32c0,16,13,29,29,29s29-13,29-29C61,16,48,3,32,3z"/>
</svg>
