<?xml version="1.0" encoding="utf-8"?>
<!-- Generator: Adobe Illustrator 24.0.2, SVG Export Plug-In . SVG Version: 6.00 Build 0)  -->
<svg version="1.1" id="Layer_1" focusable="false" xmlns="http://www.w3.org/2000/svg" xmlns:xlink="http://www.w3.org/1999/xlink"
	 x="0px" y="0px" viewBox="0 0 64 64" style="enable-background:new 0 0 64 64;" xml:space="preserve">
<path d="M55.8,14.2H25.4c-0.2,0-0.3-0.1-0.3-0.3v-1.6c0-0.2,0.1-0.3,0.3-0.3h30.4c0.2,0,0.3,0.1,0.3,0.3v1.6
	C56.1,14.1,56,14.2,55.8,14.2z"/>
<path d="M55.8,20.5H25.4c-0.2,0-0.3-0.1-0.3-0.3v-1.6c0-0.2,0.1-0.3,0.3-0.3h30.4c0.2,0,0.3,0.1,0.3,0.3v1.6
	C56.1,20.4,56,20.5,55.8,20.5z"/>
<path d="M55.8,26.9H25.4c-0.2,0-0.3-0.1-0.3-0.3V25c0-0.2,0.1-0.3,0.3-0.3h30.4c0.2,0,0.3,0.1,0.3,0.3v1.6
	C56.1,26.8,56,26.9,55.8,26.9z"/>
<path d="M18.4,34.9h-10c-0.2,0-0.3-0.1-0.3-0.3v-1.6c0-0.2,0.1-0.3,0.3-0.3h8.5c0,0,0.2,0.5,0.5,1.1C17.8,34.4,18.4,34.9,18.4,34.9z
	"/>
<path d="M35.2,40.6H8.5c-0.2,0-0.3-0.1-0.3-0.3v-1.6c0-0.2,0.1-0.3,0.3-0.3h26.7c0.2,0,0.3,0.1,0.3,0.3v1.6
	C35.5,40.4,35.4,40.6,35.2,40.6z"/>
<path d="M35.2,46.2H8.5c-0.2,0-0.3-0.1-0.3-0.3v-1.6c0-0.2,0.1-0.3,0.3-0.3h26.7c0.2,0,0.3,0.1,0.3,0.3v1.6
	C35.5,46.1,35.4,46.2,35.2,46.2z"/>
<g>
	<path d="M39.2,38.5v8.7c0,2.1-1.7,3.8-3.8,3.8H24.2l-0.8,0.5l-9,4.9v-4.7c0-0.4-0.3-0.7-0.7-0.7H7.9c-2.1,0-3.8-1.7-3.8-3.8V29.7h0
		c0-1.9,1.5-3.4,3.4-3.4h9.1v-3.1H7.9C4.1,23.2,1,26.2,1,30v17.2c0,3.8,3.1,6.9,6.9,6.9h3.4v4.6c0,0.8,0.9,1.3,1.6,1.3
		c0.3,0,0.5-0.1,0.8-0.3l11.4-5.7h10.3c3.8,0,6.9-3.1,6.9-6.9v-6.9L39.2,38.5z"/>
	<path d="M56.1,4.9h-31c-3.8,0-6.9,3.1-6.9,6.9v10.3h0v3.1h0V29c0,3.8,3.1,6.9,6.9,6.9h14.1v0l0,0h0v0l11.4,6.3
		c0.2,0.2,0.5,0.3,0.8,0.3c0.7,0,1-0.5,1-1.3v-5.3h3.8c3.8,0,6.9-3.1,6.9-6.9V11.8C63,8,59.9,4.9,56.1,4.9z M60.2,29.2
		c0,2-1.6,3.6-3.6,3.6h-6.5c-0.4,0-0.7,0.3-0.7,0.7v4.9l-8.9-5l-0.8-0.5H24.6c-2,0-3.6-1.6-3.6-3.6V11.4c0-2,1.6-3.6,3.6-3.6h32
		c2,0,3.6,1.6,3.6,3.6V29.2z"/>
</g>
</svg>
