<?xml version="1.0" encoding="utf-8"?>
<!-- Generator: Adobe Illustrator 24.0.2, SVG Export Plug-In . SVG Version: 6.00 Build 0)  -->
<svg version="1.1" id="Layer_1" xmlns="http://www.w3.org/2000/svg" xmlns:xlink="http://www.w3.org/1999/xlink" x="0px" y="0px"
	 viewBox="0 0 64 64" style="enable-background:new 0 0 64 64;" xml:space="preserve">
<style type="text/css">
	.st0{fill:#FFFFFF;}
	.st1{fill:none;stroke:#000000;stroke-width:1.5;stroke-miterlimit:10;}
</style>
<g id="Layer_2_1_">
	<g>
		<path d="M31.4,13.8l-5.6-5.6c-0.6-0.6-1.4-0.9-2.2-0.9H10.1c-1.8,0-3.2,1.4-3.2,3.2V38c0,1.8,1.4,3.2,3.2,3.2h19.1
			c1.8,0,3.2-1.4,3.2-3.2V16C32.4,15.2,32,14.4,31.4,13.8z M30.1,14.7c0.1,0.1,0.5,0.7,0.5,1.2l-6.8-0.1l-0.1-7.1
			c0.2,0,0.6,0.3,0.8,0.4L30.1,14.7z M29.2,39.9H10.1c-0.6,0-1.8-1.2-1.8-1.8V10.5c0-0.6,0.4-1.8,2-1.8l11.9,0l0,7.6
			c0,0.9,0.1,1,1,1h7.5V38C30.8,38.6,29.8,39.9,29.2,39.9z"/>
	</g>
	<g>
		<path d="M15.7,26c-0.1-0.1-0.3-0.1-0.4,0l0,0l-2.6,2.6l-1.4-1.4c-0.1-0.1-0.3-0.1-0.4,0l-0.4,0.4c-0.1,0.1-0.1,0.3,0,0.4l0,0l2,2
			c0.1,0.1,0.3,0.1,0.4,0l3.2-3.2c0.1-0.1,0.1-0.3,0-0.4l0,0L15.7,26z M12.7,32.4c-0.6,0-1.2,0.5-1.2,1.2c0,0.6,0.5,1.2,1.2,1.2
			c0.6,0,1.2-0.5,1.2-1.2C13.9,32.9,13.4,32.4,12.7,32.4z M15.7,20.2c-0.1-0.1-0.3-0.1-0.4,0l0,0l-2.6,2.6l-1.4-1.4
			c-0.1-0.1-0.3-0.1-0.4,0l-0.4,0.4c-0.1,0.1-0.1,0.3,0,0.4l0,0l2,2c0.1,0.1,0.3,0.1,0.4,0l3.2-3.2c0.1-0.1,0.1-0.3,0-0.4l0,0
			L15.7,20.2z M28.6,21.4h-11c-0.2,0-0.3,0.2-0.3,0.4v0.8c0,0.2,0.1,0.4,0.3,0.4h11c0.2,0,0.3-0.2,0.3-0.4v-0.8
			C28.9,21.6,28.8,21.4,28.6,21.4z"/>
		<path d="M28.6,27.3h-11c-0.2,0-0.3,0.2-0.3,0.4v0.8c0,0.2,0.1,0.4,0.3,0.4h11c0.2,0,0.3-0.2,0.3-0.4v-0.8
			C28.9,27.5,28.8,27.3,28.6,27.3z"/>
		<path d="M28.6,32.7h-11c-0.2,0-0.3,0.2-0.3,0.4v0.8c0,0.2,0.1,0.4,0.3,0.4h11c0.2,0,0.3-0.2,0.3-0.4v-0.8
			C28.9,32.9,28.8,32.7,28.6,32.7z"/>
	</g>
	<path d="M53.8,7.8H34.9c-0.9,0-1.6,0.7-1.6,1.6v14.2c0,0.9,0.7,1.6,1.6,1.6h18.9c0.9,0,1.6-0.7,1.6-1.6V9.3
		C55.4,8.5,54.7,7.8,53.8,7.8z M53.8,23.5H34.9v-1.2l4-3l3.9,2l6.2-4.7l4.7,3.1L53.8,23.5L53.8,23.5z M53.8,17.8L49,14.7l-6.3,4.8
		l-3.9-2l-3.8,2.9v-11h18.9L53.8,17.8L53.8,17.8z M38.8,15.6c1.3,0,2.4-1.1,2.4-2.4s-1.1-2.4-2.4-2.4c-1.3,0-2.4,1.1-2.4,2.4
		S37.5,15.6,38.8,15.6z M38.8,12.5c0.4,0,0.8,0.4,0.8,0.8c0,0.4-0.4,0.8-0.8,0.8s-0.8-0.4-0.8-0.8C38.1,12.8,38.4,12.5,38.8,12.5z"
		/>
	<g>
		<path class="st0" d="M53.8,23.4H28.5c-2,0-3.6,1.6-3.6,3.6v13.6c0,2,1.6,3.6,3.6,3.6h25.3c2,0,3.6-1.6,3.6-3.6V27.1
			C57.4,25.1,55.8,23.4,53.8,23.4L53.8,23.4z"/>
		<path class="st1" d="M29.6,42.6c-1.5,0-2.8-1.2-2.8-2.7v-12c0-1.5,1.2-2.7,2.8-2.7h23.1c1.5,0,2.8,1.2,2.8,2.7v12
			c0,1.5-1.2,2.7-2.8,2.7H29.6z"/>
		<path d="M38.5,31v5.8c0,0.3,0.3,0.5,0.6,0.4l5.5-2.9c0.3-0.1,0.3-0.6,0-0.7l-5.5-2.9C38.8,30.5,38.5,30.7,38.5,31z"/>
	</g>
</g>
<path d="M33.7,61.5c-0.5,0-2.6-0.5-7.3-1.9c-4.4-1.3-7.1-2-7.8-2c-1.2-0.1-4,1.2-5.5,2c-0.2,0.1-0.4,0-0.5-0.1l-0.5-0.7
	c-0.1-0.2,0-0.4,0.1-0.5c0.7-0.4,4.4-2.5,6.3-2.3c0.8,0.1,3.7,0.8,8,2.1l0.3,0.1c2.6,0.7,6.2,1.7,6.7,1.7c5.1,0,19.5-9.4,21.1-10.5
	c0.2-0.2,1-1.2,0.5-2.3c-0.2-0.5-0.5-0.8-1-1.1c-0.5-0.2-1-0.2-1.5,0c-0.2,0-1.1,0.5-2,0.8c-0.4,0.2-0.8,0.4-1.3,0.5
	c-4.8,2.2-9,4-10.3,4.1c0,1-0.5,2-1.3,2.6l-0.1,0.1c-0.5,0.5-1.3,0.7-1.9,0.7l0,0c-0.4,0-0.6-0.1-1-0.2l-9.7-3.5
	c-0.2-0.1-0.3-0.3-0.2-0.5l0.3-0.7c0.1-0.2,0.3-0.3,0.5-0.2l9.7,3.5c0.5,0.2,1.1,0.1,1.6-0.3l0.1-0.1c0.6-0.5,0.9-1.3,0.7-2
	c-0.1-0.5-0.4-0.8-0.8-1l-13.8-5c-1.3-0.5-2.7-0.5-4.1,0c-4.5,1.7-9.8,5.6-10.8,6.3c-0.1,0.1-0.3,0.1-0.5,0l-0.5-0.6
	c-0.1-0.1-0.1-0.3,0-0.5c1.1-0.8,6.5-4.8,11.1-6.4c1.6-0.5,3.4-0.6,5,0l13.8,5c0.6,0.3,1.2,0.7,1.6,1.4h0.1c1,0,7.5-2.9,10-4
	l1.4-0.6c1.3-0.5,1.8-0.8,2.1-0.9c1.6-0.6,3.5,0.2,4.2,1.8c0.9,1.6-0.1,3.4-0.8,4.1l-0.1,0.1c-0.1,0-0.2,0.1-0.3,0.2
	C50.5,54.1,38.6,61.5,33.7,61.5z M25.2,51.3L25.2,51.3L25.2,51.3z M8.1,51.1L8.1,51.1L8.1,51.1z M25.4,50.4L25.4,50.4L25.4,50.4z
	 M7.6,50.4L7.6,50.4L7.6,50.4z"/>
</svg>
