<?xml version="1.0" encoding="utf-8"?>
<!-- Generator: Adobe Illustrator 24.0.2, SVG Export Plug-In . SVG Version: 6.00 Build 0)  -->
<svg version="1.1" id="Layer_1" xmlns="http://www.w3.org/2000/svg" xmlns:xlink="http://www.w3.org/1999/xlink" x="0px" y="0px"
	 viewBox="0 0 64 64" style="enable-background:new 0 0 64 64;" xml:space="preserve">
<path d="M57.7,50.8c0.6-0.2,1.2-1,1.2-1.9V3c0-1.1-0.9-2-2-2H14c-5,0-9,4-9,9V54c0,5,4,9,9,9h0h44.4c0.3,0,0.5-0.2,0.5-0.5v-1
	c0-0.3-0.2-0.5-0.5-0.5l-1.3,0V50.9C57.4,50.9,57.6,50.9,57.7,50.8z M7,51.5V10c0-3.9,3.1-7,7-7c0,0,0,0,0,0h1.7v46H14
	C8,49,7,51.5,7,51.5z M55.2,61L14,61c-4,0-6.5-2.9-6.5-5.6c0-2.2,1.7-4.7,6.4-4.7l41,0.3c0,0,0.1,0,0.3,0V61z M57,48.3
	c0,0.4-0.3,0.7-0.7,0.7c0,0,0,0,0,0H17.8V3h38.4C56.6,3,57,3.4,57,3.8V48.3z"/>
</svg>
