<?xml version="1.0" encoding="utf-8"?>
<!-- Generator: Adobe Illustrator 24.0.2, SVG Export Plug-In . SVG Version: 6.00 Build 0)  -->
<svg version="1.1" id="Layer_1" focusable="false" xmlns="http://www.w3.org/2000/svg" xmlns:xlink="http://www.w3.org/1999/xlink"
	 x="0px" y="0px" viewBox="0 0 64 64" style="enable-background:new 0 0 64 64;" xml:space="preserve">
<path d="M48.2,31.3c-4.4,0-8-3.6-8-8s3.6-8,8-8c4.4,0,8,3.6,8,8S52.6,31.3,48.2,31.3z M48.2,17.7c-3,0-5.5,2.5-5.5,5.5
	s2.5,5.5,5.5,5.5c3,0,5.5-2.5,5.5-5.5S51.2,17.7,48.2,17.7z M48.2,33c-5.6,0-10.1,2.8-12.5,7.2c0.7,0.9,1.3,1.9,1.8,3
	c1.6-4.4,5.7-7.4,10.8-7.4c6.7,0,11.3,4.5,11.5,11.2c0,0.4,0.3,0.7,0.7,0.7h1.3c0.2,0,0.4-0.1,0.5-0.2c0.1-0.1,0.2-0.3,0.2-0.5
	C62.3,38.8,56.4,33,48.2,33z M19.5,32c5.5,0,9.9-4.4,9.9-9.9s-4.4-9.9-9.9-9.9S9.6,16.5,9.6,22S14,32,19.5,32z M19.5,14.6
	c4.1,0,7.4,3.3,7.4,7.4s-3.3,7.4-7.4,7.4S12,26.1,12,22S15.4,14.6,19.5,14.6z M36.9,51.9h-1.7c-0.3,0-0.6-0.2-0.6-0.6
	c-0.2-8.9-6.3-14.8-15.2-14.8c-8.6,0-14.9,6.2-15.2,14.8c0,0.3-0.3,0.6-0.6,0.6H2.1c-0.3,0-0.6-0.3-0.6-0.6
	c0.3-10.2,7.8-17.6,18-17.6c10.4,0,17.7,7.2,18,17.6C37.5,51.6,37.2,51.9,36.9,51.9z"/>
</svg>
