<?xml version="1.0" encoding="utf-8"?>
<!-- Generator: Adobe Illustrator 24.0.2, SVG Export Plug-In . SVG Version: 6.00 Build 0)  -->
<svg version="1.1" id="Layer_1" xmlns="http://www.w3.org/2000/svg" xmlns:xlink="http://www.w3.org/1999/xlink" x="0px" y="0px"
	 viewBox="0 0 64 64" style="enable-background:new 0 0 64 64;" xml:space="preserve">
<path d="M33.8,63.3c-0.6,0-2.9-0.6-8-2.1C21,59.8,18,59,17.3,59c-1.3-0.1-4.4,1.3-6,2.2c-0.2,0.1-0.4,0-0.5-0.1l-0.5-0.8
	c-0.1-0.2,0-0.4,0.1-0.5c0.8-0.4,4.8-2.7,6.9-2.5c0.9,0.1,4.1,0.9,8.8,2.3l0.3,0.1c2.9,0.8,6.8,1.9,7.3,1.9
	c5.6,0,21.3-10.3,23.1-11.5c0.2-0.2,1.1-1.3,0.5-2.5c-0.2-0.5-0.6-0.9-1.1-1.2c-0.5-0.2-1.1-0.2-1.6,0c-0.2,0-1.2,0.5-2.2,0.9
	c-0.4,0.2-0.9,0.4-1.4,0.6c-5.3,2.4-9.8,4.4-11.3,4.5c0,1.1-0.5,2.2-1.4,2.9l-0.1,0.1c-0.6,0.5-1.4,0.8-2.1,0.8c0,0,0,0,0,0
	c-0.4,0-0.7-0.1-1.1-0.2l-10.6-3.8c-0.2-0.1-0.3-0.3-0.2-0.5l0.3-0.8c0.1-0.2,0.3-0.3,0.5-0.2l10.6,3.8c0.6,0.2,1.2,0.1,1.7-0.3
	l0.1-0.1c0.7-0.5,1-1.4,0.8-2.2c-0.1-0.5-0.4-0.9-0.9-1.1l-15.1-5.5c-1.4-0.5-3-0.5-4.5,0C12.8,47.2,7,51.4,5.9,52.2
	c-0.1,0.1-0.3,0.1-0.5,0l-0.6-0.7c-0.1-0.1-0.1-0.3,0-0.5c1.2-0.9,7.1-5.2,12.2-7c1.8-0.6,3.7-0.7,5.5,0l15.1,5.5
	c0.7,0.3,1.3,0.8,1.7,1.5h0.1c1.1,0,8.2-3.2,10.9-4.4l1.5-0.7c1.4-0.6,2-0.9,2.3-1c1.8-0.7,3.8,0.2,4.6,2c1,1.8-0.1,3.7-0.9,4.5
	l-0.1,0.1c-0.1,0-0.2,0.1-0.3,0.2C52.2,55.2,39.1,63.3,33.8,63.3z M24.5,52.1L24.5,52.1C24.5,52.1,24.5,52.1,24.5,52.1z M5.7,51.9
	C5.7,51.9,5.7,51.9,5.7,51.9C5.7,51.9,5.7,51.9,5.7,51.9z M24.7,51.2C24.7,51.2,24.7,51.2,24.7,51.2L24.7,51.2z M5.2,51.2L5.2,51.2
	C5.2,51.2,5.2,51.2,5.2,51.2z M52.7,44.1V13.5c0-1.1-0.5-2.2-1.3-3l-8.3-8.3c-0.8-0.8-1.9-1.3-3-1.3H19.8c-2.4,0-4.3,1.9-4.3,4.3V43
	l1.7-0.8V4.6c0.2-1,1-1.8,2-2h19.3v11.3c0,1,0,1,1,1H51v29.8L52.7,44.1z M40,13.6v-11h0.8c0.4,0,0.7,0.1,1,0.3l8.7,8.7
	c0.5,0.6,0.7,1.3,0.6,2H40z"/>
</svg>
