<?xml version="1.0" encoding="UTF-8"?>
<svg width="21px" height="21px" viewBox="0 0 21 21" version="1.1" xmlns="http://www.w3.org/2000/svg" xmlns:xlink="http://www.w3.org/1999/xlink">
    <!-- Generator: Sketch 57.1 (83088) - https://sketch.com -->
    <title>Chat</title>
    <desc>Created with Sketch.</desc>
    <g id="Mockup_moodle-design" stroke="none" stroke-width="1" fill="none" fill-rule="evenodd">
        <g id="Dashboard-/-CourseOverview-Blocks" transform="translate(-1114.000000, -26.000000)" fill="#000000">
            <g id="MainMenu">
                <g id="chat-single" transform="translate(1114.000000, 26.000000)">
                    <g id="chat-01-copy">
                        <path d="M0.886666667,21 L0.886666667,21 C0.7,21 0.56,20.8833333 0.42,20.7666667 C0.28,20.5916667 0.233333333,20.3583333 0.326666667,20.0666667 L2.05333333,15.6916667 C0.98,14.1166667 0.42,12.1916667 0.42,10.15 C0.42,4.60833333 4.94666667,0.0583333333 10.5,0.0583333333 C16.0533333,0.0583333333 20.58,4.60833333 20.58,10.15 C20.58,15.6916667 16.0533333,20.2416667 10.5,20.2416667 L10.4533333,20.2416667 C9.00666667,20.2416667 7.60666667,19.8916667 6.20666667,19.25 L0.933333333,20.9416667 L0.886666667,21 Z M3.12666667,15.8083333 L1.77333333,19.25 L6.06666667,17.85 L6.34666667,17.85 C7.65333333,18.4916667 9.00666667,18.8416667 10.4066667,18.8416667 L10.4533333,18.8416667 C15.4,18.8416667 19.46,14.9333333 19.46,10.0916667 C19.46,8.16666667 18.8533333,6.3 17.64,4.78333333 C15.9133333,2.625 13.3,1.34166667 10.4533333,1.34166667 C5.50666667,1.34166667 1.44666667,5.25 1.44666667,10.0916667 C1.44666667,11.9 2.00666667,13.7083333 3.08,15.05 C3.22,15.225 3.26666667,15.575 3.12666667,15.8083333 Z" id="Layer_2_1_" fill-rule="nonzero"></path>
                    </g>
                </g>
            </g>
        </g>
    </g>
</svg>