<?xml version="1.0" encoding="utf-8"?>
<!-- Generator: Adobe Illustrator 24.1.2, SVG Export Plug-In . SVG Version: 6.00 Build 0)  -->
<svg version="1.1" id="Layer_1" xmlns="http://www.w3.org/2000/svg" xmlns:xlink="http://www.w3.org/1999/xlink" x="0px" y="0px"
	 viewBox="0 0 460 153" style="enable-background:new 0 0 460 153;" xml:space="preserve">
<style type="text/css">
	.st0{fill:#FFFFFF;}
</style>
<desc>Created with Sketch.</desc>
<g id="Mockup_moodle-design">
	<g id="Dashboard-_x2F_-CourseOverview-List" transform="translate(-120.000000, -1974.000000)">
		<g id="FOOTER" transform="translate(0.000000, 1973.000000)">
			<g id="logo" transform="translate(101.000000, 0.000000)">
				<g id="Path" transform="translate(0.000000, 0.485573)">
					<path class="st0" d="M199.6,0.5l-0.9,8.8c-3.1,31.1-17.3,45.4-38.7,47.4c-24.4,2-49.4-19.4-53-56.1L19.4,0.5
						c0.2,2.2,0.4,4.4,0.6,6.8C27.6,91.8,92.8,160.1,176.3,153C242,147.4,287.9,97.4,296,21.5l2.1-21L199.6,0.5z"/>
					<path class="st0" d="M392.9,0.5c-7.3,38.6-34.8,59.1-66.9,64.8l29,88.2c55-10.4,111.1-57.7,123.4-153L392.9,0.5z"/>
				</g>
			</g>
		</g>
	</g>
</g>
</svg>
