<?xml version="1.0" encoding="UTF-8"?>
<svg width="78px" height="58px" viewBox="0 0 78 58" version="1.1" xmlns="http://www.w3.org/2000/svg" xmlns:xlink="http://www.w3.org/1999/xlink">
    <!-- Generator: Sketch 57.1 (83088) - https://sketch.com -->
    <title>logo</title>
    <desc>Created with Sketch.</desc>
    <g id="Mockup_moodle-design" stroke="none" stroke-width="1" fill="none" fill-rule="evenodd">
        <g id="Dashboard-/-CourseOverview-Blocks" transform="translate(-119.000000, -29.000000)" fill="#FF0000" fill-rule="nonzero">
            <g id="MainMenu">
                <g id="logo" transform="translate(119.000000, 29.000000)">
                    <path d="M51.8795183,0.0815346908 C41.2456441,1.02678331 32.7556962,9.10436241 31.2978263,23.5408868 L30.2687417,33.6808265 C29.7541994,38.9226597 27.3530021,41.3287471 23.751206,41.6724739 C19.6348676,42.0162007 15.4327721,38.4070696 14.8324728,32.2199877 C14.1464164,23.1112283 19.8063817,19.7598923 23.1509066,18.9865071 L17.6624554,4.46405101 C9.08675047,6.78420671 -1.46136664,14.7758541 0.168017303,33.3370997 C1.45437305,47.6017607 12.4312754,59.1166075 26.4954316,57.9135638 C37.558091,56.9683152 45.2762254,48.5470093 46.6483382,35.7431871 L47.6774228,25.431384 C48.1919651,20.4473458 50.6789196,17.0960098 54.4522298,16.8382147 C59.0831104,16.4085563 62.5991495,20.1036191 63.1994488,26.6344277 C64.0570193,36.7743674 58.4828111,41.930269 51.7080042,43.1333127 L56.596156,58 C67.0585161,56.0230666 79.6648024,46.0549902 77.7781473,25.5173157 C76.3202774,7.81538702 63.542477,-0.94964562 51.8795183,0.0815346908 Z" id="Path"></path>
                </g>
            </g>
        </g>
    </g>
</svg>