<?xml version="1.0" encoding="UTF-8" standalone="no"?>
<!DOCTYPE svg PUBLIC "-//W3C//DTD SVG 1.1//EN" "http://www.w3.org/Graphics/SVG/1.1/DTD/svg11.dtd">
<svg width="100%" height="100%" viewBox="0 0 513 131" version="1.1" xmlns="http://www.w3.org/2000/svg" xmlns:xlink="http://www.w3.org/1999/xlink" xml:space="preserve" xmlns:serif="http://www.serif.com/" style="fill-rule:evenodd;clip-rule:evenodd;stroke-linejoin:round;stroke-miterlimit:2;">
    <g transform="matrix(1,0,0,1,-705,-474.99)">
        <path d="M1099,475C1099.08,476.66 1099.24,478.31 1099.24,479.97C1099.25,519.27 1099.25,558.57 1099.25,597.86L1099.25,599.36C1099.2,603.68 1099.2,603.7 1094.87,603.72C1090.54,603.74 1086.21,603.74 1081.88,603.72C1077.35,603.7 1077.28,603.69 1077.08,599.2C1077,597.33 1076.85,596.91 1074.99,598.13C1063.1,605.91 1050.55,607.19 1037.67,600.95C1027.93,596.24 1022.24,587.91 1019.52,577.71C1016.51,566.41 1017.47,555.35 1023,544.83C1030.45,530.66 1046.95,525.49 1059.28,527.56C1065.19,528.55 1070.45,530.6 1074.94,534.58C1075.41,535 1075.83,535.86 1076.53,535.57C1077.46,535.19 1077.03,534.17 1077.04,533.43C1077.07,519.11 1077.06,504.79 1077.06,490.47C1077.06,485.31 1077.02,480.15 1077,474.99C1084.33,475 1091.67,475 1099,475ZM1077.06,567.49C1077.06,566.16 1076.96,564.82 1077.08,563.5C1077.77,555.82 1073.98,550.5 1068.03,546.36C1061.19,541.61 1052.47,542.62 1046.85,548.75C1038.65,557.69 1038.98,575.48 1047.57,583.99C1051.32,587.7 1055.96,589.58 1061.17,588.66C1066.61,587.71 1070.74,584.31 1074.41,580.28C1077.3,577.11 1077.15,573.32 1077.07,569.48C1077.05,568.82 1077.06,568.15 1077.06,567.49Z" style="fill:white;fill-rule:nonzero;"/>
        <path d="M1161.16,604.05C1145.56,599.54 1134.08,586.07 1133.74,569.44C1133.56,560.63 1134.4,552.13 1139.28,544.56C1146.26,533.73 1156.68,528.42 1169.18,527.13C1175.46,526.48 1181.81,526.6 1187.99,528.43C1202.78,532.82 1211.21,543.07 1215.08,557.63C1215.65,559.76 1215.2,562.24 1217.01,564L1217.01,573C1199.73,573.01 1182.44,573.02 1165.16,573.03C1163.17,573.03 1161.17,573.12 1159.18,573.01C1157.02,572.89 1156.43,573.99 1157.11,575.73C1159.86,582.76 1164.48,588.32 1172.06,589.74C1179.7,591.16 1187.04,589.8 1191.98,582.74C1192.71,581.69 1193.35,580.99 1194.69,581C1201.34,581.02 1207.99,580.99 1214.63,580.97C1216.05,580.97 1216.41,581.84 1215.92,582.9C1215.02,584.85 1214.06,586.8 1212.86,588.57C1207.39,596.62 1199.75,601.89 1190.41,604.07C1177.61,607.05 1162.82,604.53 1161.16,604.05ZM1175.28,558.97L1187.77,558.97C1194.7,558.97 1194.87,558.69 1191.68,552.36C1191.31,551.62 1190.89,550.89 1190.43,550.2C1184.12,540.72 1173.67,539.93 1166.88,544.04C1162.16,546.9 1159.28,551.32 1157.65,556.63C1157.08,558.49 1157.46,558.99 1159.27,558.98C1164.62,558.95 1169.95,558.97 1175.28,558.97Z" style="fill:white;fill-rule:nonzero;"/>
        <path d="M880.16,604.11C865.1,600.65 852.17,586.33 851.86,568.54C851.69,558.59 853.4,549.39 859.78,541.42C866.81,532.64 875.9,527.74 887.1,526.94C895.31,526.36 903.37,526.91 910.89,530.81C924.33,537.78 931.34,548.8 932.04,563.89C932.46,573.12 930.6,581.72 925.15,589.37C919.05,597.94 910.61,602.79 900.46,604.92C899.57,605.1 887.52,605.8 880.16,604.11ZM874.92,565.79C874.51,569.96 875.36,574.02 877.12,577.83C879.84,583.73 884.44,587.21 891.05,587.5C897.13,587.76 902.11,585.47 905.3,580.16C910.73,571.14 910.81,561.69 905.72,552.72C899.68,542.08 884.35,542.37 878.09,552.89C875.75,556.82 874.57,561.1 874.92,565.79Z" style="fill:white;fill-rule:nonzero;"/>
        <path d="M963.16,604.12C947.44,601.22 935.19,586.05 934.8,568.65C934.57,558.52 936.3,549.15 942.9,541.13C950.01,532.47 959.1,527.54 970.34,526.92C975.65,526.63 980.94,526.66 986.2,527.95C1002.6,531.97 1014.56,546.8 1015.02,563.72C1015.29,573.65 1013.31,582.85 1006.94,590.77C1000.27,599.07 991.68,603.88 981.09,605.06C980.28,605.15 969.98,605.38 963.16,604.12ZM992.06,566.23C992.22,561.59 991.33,557.07 988.91,552.96C982.97,542.91 969.13,542.16 962.03,551.34C956.33,558.71 956.13,574.54 962.77,582.17C968.5,588.75 979.08,589.44 985.43,583.39C990.28,578.75 992.26,572.96 992.06,566.23Z" style="fill:white;fill-rule:nonzero;"/>
        <path d="M1129,475C1129.05,476.83 1129.14,478.66 1129.14,480.49C1129.15,519.47 1129.15,558.45 1129.15,597.44C1129.15,598.27 1129.16,599.11 1129.15,599.94C1129.07,603.68 1129.07,603.72 1125.25,603.74C1120.25,603.78 1115.25,603.79 1110.26,603.74C1106.25,603.7 1106.25,603.65 1106.19,599.43C1106.18,598.6 1106.19,597.76 1106.19,596.93C1106.19,558.11 1106.19,519.3 1106.18,480.48C1106.18,478.65 1106.07,476.82 1106.01,475L1129,475Z" style="fill:white;fill-rule:nonzero;"/>
        <path d="M773.91,545.9C778.8,541.77 783.66,537.61 786.96,531.99C787.64,532.46 788.4,532.84 788.98,533.41C790.19,534.57 791.19,534.47 792.37,533.31C801.11,524.66 826.48,525.27 837.18,533.06C843.92,537.96 847.99,544.4 848.1,552.78C848.32,568.77 848.2,584.76 848.31,600.74C848.33,603.08 847.64,604 845.18,603.92C840.19,603.76 835.19,603.89 830.19,603.87C825.8,603.85 825.76,603.83 825.75,599.61C825.73,587.78 825.68,575.96 825.78,564.14C825.81,560.79 825.47,557.49 825.03,554.21C824.24,548.36 820.78,545.17 815.18,544.89C808.1,544.54 804.46,547.02 802.93,553.17C802.32,555.61 802.1,558.06 802.1,560.57C802.14,573.73 802.13,586.88 802.11,600.04C802.1,603.8 802.04,603.84 798.28,603.86C793.12,603.89 787.95,603.92 782.79,603.85C779.29,603.81 779.19,603.73 779.18,600.12C779.14,587.63 779.17,575.14 779.16,562.65C779.16,560.49 779.12,558.32 779.07,556.16C778.99,551.92 777.45,548.4 773.91,545.9Z" style="fill:white;fill-rule:nonzero;"/>
        <path d="M734.02,550.06C741.52,552.46 749.13,553.77 757.01,552.3C756.09,555.7 756.1,559.18 756.11,562.67C756.14,575.14 756.14,587.61 756.11,600.08C756.1,603.8 756.04,603.84 752.25,603.86C747.1,603.89 741.94,603.9 736.79,603.86C733.25,603.83 733.18,603.79 733.17,600.34C733.14,589.2 733.07,578.06 733.19,566.92C733.25,561.3 732.44,555.62 734.02,550.06Z" style="fill:white;fill-rule:nonzero;"/>
        <path d="M705,535C717.2,528.27 729.48,521.69 742.72,517.16C754.23,513.22 766.08,510.74 778.09,508.99C784.34,508.08 790.59,507.14 796.85,506.31C797.85,506.18 799.33,505.31 799.85,506.74C800.22,507.78 798.82,508.27 798.05,508.83C792.16,513.17 786.23,517.47 780.34,521.81C777.96,523.56 777.97,523.6 780.14,525.5C782.51,527.57 785.12,529.37 786.97,531.99C783.67,537.61 778.8,541.77 773.92,545.9C768.55,548.72 763.09,551.32 757.02,552.3C749.14,553.77 741.53,552.46 734.03,550.06C733.18,546.31 733.02,542.49 733.11,538.67C733.16,536.73 732.4,536.08 730.48,536.09C723.67,536.14 716.85,536.05 710.04,536.01C709.34,536.02 708.64,536.02 707.94,536.03C706.96,536.02 705.99,536.01 705.01,536C705,535.67 705,535.33 705,535Z" style="fill:white;fill-rule:nonzero;"/>
        <path d="M711.9,574.59C711.9,576.74 711.92,578.89 711.88,581.04C711.87,581.45 711.67,581.85 711.55,582.25C711.21,581.92 710.74,581.66 710.56,581.26C707.58,574.71 705.42,568.01 706.97,560.67C707.24,559.39 707.36,557.32 708.45,557.34C709.93,557.37 710.53,559.26 710.73,560.78C711.17,564.05 711.57,567.33 711.89,570.62C712.02,571.93 711.91,573.26 711.91,574.59C711.92,574.59 711.91,574.59 711.9,574.59Z" style="fill:white;fill-rule:nonzero;"/>
        <path d="M707.93,536.03C708.63,536.02 709.33,536.02 710.03,536.01C709.13,541.42 709.3,546.86 709.52,552.3C709.54,552.92 709.61,553.53 709.65,554.15C709.14,553.55 708.36,553.01 708.17,552.32C707.88,551.23 707.94,550.04 707.93,548.89C707.91,544.6 707.93,540.31 707.93,536.03Z" style="fill:white;fill-rule:nonzero;"/>
    </g>
</svg>
