<?xml version="1.0" encoding="utf-8"?>
<!-- Generator: Adobe Illustrator 24.0.2, SVG Export Plug-In . SVG Version: 6.00 Build 0)  -->
<svg version="1.1" id="Layer_1" focusable="false" xmlns="http://www.w3.org/2000/svg" xmlns:xlink="http://www.w3.org/1999/xlink"
	 x="0px" y="0px" viewBox="0 0 64 64" style="enable-background:new 0 0 64 64;" xml:space="preserve">
<g>
	<path d="M47,51.5L47,51.5c0,0.8-0.7,1.5-1.5,1.5h-39C5.7,53,5,52.3,5,51.5v-27C5,23.7,5.7,23,6.5,23h5.9v-3H6.5C4,20,2,22,2,24.5
		v27C2,54,4,56,6.5,56h39c2.5,0,4.5-2,4.5-4.5v-5.9h-3V51.5z"/>
	<path d="M57.5,14h-18l-5.1-5.1C33.8,8.3,33.1,8,32.3,8H18.5C16,8,14,10,14,12.5l0,11.8h0v15.2c0,2.5,2,4.5,4.5,4.5l39,0
		c2.5,0,4.5-2,4.5-4.5v-21C62,16,60,14,57.5,14z M59,39.5c0,0.8-0.7,1.5-1.5,1.5h-39c-0.8,0-1.5-0.7-1.5-1.5v-27
		c0-0.8,0.7-1.5,1.5-1.5h13.8l5.1,5.1c0.6,0.6,1.3,0.9,2.1,0.9h18c0.8,0,1.5,0.7,1.5,1.5V39.5z"/>
</g>
</svg>
