<?xml version="1.0" encoding="utf-8"?>
<!-- Generator: Adobe Illustrator 24.0.2, SVG Export Plug-In . SVG Version: 6.00 Build 0)  -->
<svg version="1.1" id="Layer_1" xmlns="http://www.w3.org/2000/svg" xmlns:xlink="http://www.w3.org/1999/xlink" x="0px" y="0px"
	 viewBox="0 0 64 64" style="enable-background:new 0 0 64 64;" xml:space="preserve">
<path d="M26,8.1H14.4c-2.9,0-5.2,2.3-5.2,5.2v43c0,2.9,2.3,5.2,5.2,5.2h35.2c2.9,0,5.2-2.3,5.2-5.2v-43c0-2.9-2.3-5.2-5.2-5.2
	c0,0,0,0,0,0H38 M43.6,9.9h6.3c1.6,0.2,2.9,1.4,3.1,3.1v43.5c0,1.5-1.7,3.3-3.1,3.3H14.1c-1.6-0.1-2.9-1.4-3-3v-44
	c0.3-1.5,1.4-2.6,2.9-2.9h6.4L43.6,9.9z M20.2,37.3c-0.2,0-0.3-0.1-0.5-0.2l-2.8-2.7c-0.2-0.2-0.2-0.5,0-0.7l0.3-0.3
	c0.1-0.1,0.2-0.1,0.3-0.1c0.1,0,0.2,0,0.3,0.1l2.3,2.3l4.7-4.8c0.2-0.2,0.5-0.2,0.7,0l0.3,0.3c0.1,0.1,0.1,0.2,0.1,0.3
	c0,0.1,0,0.2-0.1,0.3l-5.1,5.3C20.5,37.2,20.3,37.3,20.2,37.3z M47.1,24.2H26.2c-0.2,0-0.3-0.1-0.3-0.3V23c0-0.2,0.1-0.3,0.3-0.3
	h20.9c0.2,0,0.3,0.1,0.3,0.3v0.9C47.4,24,47.3,24.2,47.1,24.2z M42.5,12.4H21.5c-0.2,0-0.3-0.1-0.3-0.3v-0.9c0-0.2,0.1-0.3,0.3-0.3
	h20.9c0.2,0,0.3,0.1,0.3,0.3v0.9C42.8,12.3,42.6,12.4,42.5,12.4z M20.6,26.1c-1.5,0-2.7-1.2-2.7-2.7s1.2-2.7,2.7-2.7
	s2.7,1.2,2.7,2.7S22.1,26.1,20.6,26.1z M20.6,22c-0.8,0-1.4,0.6-1.4,1.4c0,0.8,0.6,1.4,1.4,1.4s1.4-0.6,1.4-1.4l0,0
	C22,22.6,21.4,22,20.6,22z M47.1,47.9H26.2c-0.2,0-0.3-0.1-0.3-0.3v-0.9c0-0.2,0.1-0.3,0.3-0.3h20.9c0.2,0,0.3,0.1,0.3,0.3v0.9
	C47.4,47.7,47.3,47.9,47.1,47.9z M47.1,36H26.2c-0.2,0-0.3-0.1-0.3-0.3v-0.9c0-0.2,0.1-0.3,0.3-0.3h20.9c0.2,0,0.3,0.1,0.3,0.3v0.9
	C47.4,35.9,47.3,36,47.1,36z M20.6,49.8c-1.5,0-2.7-1.2-2.7-2.7s1.2-2.7,2.7-2.7s2.7,1.2,2.7,2.7S22.1,49.8,20.6,49.8z M20.6,45.7
	c-0.8,0-1.4,0.6-1.4,1.4s0.6,1.4,1.4,1.4s1.4-0.6,1.4-1.4l0,0C22,46.3,21.4,45.7,20.6,45.7C20.6,45.7,20.6,45.7,20.6,45.7z
	 M36.4,7.3h-1c-0.2,0-0.4-0.2-0.4-0.4c-0.2-1.5-1.5-2.7-3-2.7c-1.6,0-2.9,1.2-3,2.7c0,0.2-0.2,0.4-0.4,0.4h-1
	c-0.2,0-0.4-0.2-0.4-0.4c0.2-2.5,2.3-4.4,4.9-4.4s4.6,2,4.9,4.4C36.9,7.1,36.7,7.3,36.4,7.3z"/>
</svg>
