<?xml version="1.0" encoding="utf-8"?>
<!-- Generator: Adobe Illustrator 24.0.2, SVG Export Plug-In . SVG Version: 6.00 Build 0)  -->
<svg version="1.1" id="Layer_1" focusable="false" xmlns="http://www.w3.org/2000/svg" xmlns:xlink="http://www.w3.org/1999/xlink"
	 x="0px" y="0px" viewBox="0 0 64 64" style="enable-background:new 0 0 64 64;" xml:space="preserve">
<path d="M62.1,4.4H1.9C1.4,4.4,1,4.8,1,5.3V7c0,0.5,0.4,0.9,0.9,0.9h2.6v31c0,1.9,1.5,3.5,3.4,3.5h22.4v5.3l-9.2,9.3
	c-0.3,0.3-0.3,0.9,0,1.2l1.2,1.2c0.3,0.3,0.9,0.3,1.2,0c0,0,0,0,0,0l8.5-8.5l8.5,8.5c0.3,0.3,0.9,0.3,1.2,0c0,0,0,0,0,0l1.2-1.2
	c0.3-0.3,0.3-0.9,0-1.2l-9.2-9.2v-5.3h22.4c1.9,0,3.4-1.5,3.4-3.5v-31h2.6C62.6,7.9,63,7.5,63,7V5.3C63,4.8,62.6,4.4,62.1,4.4z
	 M56.1,38.9H7.9v-31h48.2V38.9z M32,10.6c-6.8,0-12.4,5.6-12.4,12.4S25.2,35.4,32,35.4S44.4,29.9,44.4,23
	C44.4,16.2,38.8,10.6,32,10.6z M32.3,15.8c0.9,0,1.5,0.7,1.5,1.6s-0.7,1.5-1.5,1.5c-0.9,0-1.6-0.7-1.6-1.5S31.4,15.8,32.3,15.8z
	 M34.6,29.7h-4.1c-0.6,0-1-0.5-1-1c0-0.6,0.5-1,1-1h0.8c0.1,0,0.3-0.1,0.3-0.3v-4.6c0-0.1-0.1-0.3-0.3-0.3h-0.8c-0.6,0-1-0.5-1-1
	s0.5-1,1-1h1c1.1,0,2.1,0.9,2.1,2.1v4.9c0,0.1,0.1,0.3,0.3,0.3h0.8c0.6,0,1,0.5,1,1C35.6,29.3,35.2,29.7,34.6,29.7z"/>
</svg>
